<svg width="18" height="20" viewBox="0 0 18 20" fill="none" xmlns="http://www.w3.org/2000/svg">
<path fill-rule="evenodd" clip-rule="evenodd" d="M9 11C11.3955 11 13.5753 11.6937 15.1777 12.6715C15.9786 13.1602 16.6621 13.7363 17.156 14.3615C17.642 14.9767 18 15.713 18 16.5C18 17.3449 17.5889 18.0111 16.9973 18.4859C16.4368 18.9359 15.6982 19.2336 14.9128 19.4416C13.3353 19.8593 11.229 20 9 20C6.77101 20 4.66466 19.8593 3.08716 19.4416C2.30182 19.2336 1.56324 18.9359 1.00266 18.4859C0.41114 18.0111 0 17.3449 0 16.5C0 15.713 0.35805 14.9767 0.84397 14.3615C1.33788 13.7363 2.02143 13.1602 2.82227 12.6715C4.42467 11.6937 6.60453 11 9 11ZM9 13C6.97719 13 5.15705 13.5898 3.86402 14.3788C3.21714 14.7735 2.72913 15.2015 2.41339 15.6013C2.08967 16.0111 2 16.3206 2 16.5C2 16.6216 2.03657 16.7512 2.2547 16.9263C2.50376 17.1262 2.93676 17.3328 3.59914 17.5082C4.91706 17.8572 6.81071 18 9 18C11.1893 18 13.0829 17.8572 14.4009 17.5082C15.0632 17.3328 15.4962 17.1262 15.7453 16.9263C15.9634 16.7512 16 16.6216 16 16.5C16 16.3206 15.9103 16.0111 15.5866 15.6013C15.2709 15.2015 14.7829 14.7735 14.136 14.3788C12.8429 13.5898 11.0228 13 9 13ZM9 0C11.7614 0 14 2.23858 14 5C14 7.76142 11.7614 10 9 10C6.23858 10 4 7.76142 4 5C4 2.23858 6.23858 0 9 0ZM9 2C7.3431 2 6 3.34315 6 5C6 6.65685 7.3431 8 9 8C10.6569 8 12 6.65685 12 5C12 3.34315 10.6569 2 9 2Z" fill="#B5460F"/>
</svg>
